<?xml version="1.0" encoding="iso-8859-1"?>
<!-- Generator: Adobe Illustrator 19.0.0, SVG Export Plug-In . SVG Version: 6.00 Build 0)  -->
<svg version="1.1" id="Layer_1" xmlns="http://www.w3.org/2000/svg" xmlns:xlink="http://www.w3.org/1999/xlink" x="0px" y="0px"
	 viewBox="0 0 512 512" style="enable-background:new 0 0 512 512;" xml:space="preserve">
<g>
	<g>
		<path d="M428.522,0c-46.03,0-83.478,37.448-83.478,83.478c0,16.99,5.113,32.801,13.865,46.001L4.891,483.499
			c-6.52,6.52-6.52,17.091,0,23.611c3.259,3.26,7.532,4.89,11.805,4.89c4.273,0,8.546-1.63,11.805-4.891L382.52,153.09
			c13.2,8.753,29.013,13.866,46.002,13.866c46.03,0,83.478-37.448,83.478-83.478S474.552,0,428.522,0z"/>
	</g>
</g>
<g>
	<g>
		<path d="M153.091,129.479c8.752-13.2,13.865-29.011,13.865-46.001C166.957,37.448,129.508,0,83.478,0S0,37.448,0,83.478
			s37.448,83.478,83.478,83.478c16.99,0,32.801-5.113,46.002-13.866l79.298,79.298l23.611-23.611L153.091,129.479z"/>
	</g>
</g>
<g>
	<g>
		<path d="M507.109,483.498L303.222,279.611l-23.611,23.611l203.887,203.887c3.26,3.261,7.533,4.891,11.806,4.891
			c4.273,0,8.546-1.63,11.805-4.891C513.629,500.589,513.629,490.018,507.109,483.498z"/>
	</g>
</g>
<g>
</g>
<g>
</g>
<g>
</g>
<g>
</g>
<g>
</g>
<g>
</g>
<g>
</g>
<g>
</g>
<g>
</g>
<g>
</g>
<g>
</g>
<g>
</g>
<g>
</g>
<g>
</g>
<g>
</g>
</svg>
