<?xml version="1.0" encoding="iso-8859-1"?>
<!-- Generator: Adobe Illustrator 19.0.0, SVG Export Plug-In . SVG Version: 6.00 Build 0)  -->
<svg version="1.1" id="Layer_1" xmlns="http://www.w3.org/2000/svg" xmlns:xlink="http://www.w3.org/1999/xlink" x="0px" y="0px"
	 viewBox="0 0 508.16 508.16" style="enable-background:new 0 0 508.16 508.16;" xml:space="preserve">
<g transform="translate(1 1)">
	<g>
		<g>
			<path d="M506.947,382.123l-39.253-248.32c-6.827-41.813-31.573-78.507-67.413-99.84L368.707,15.19
				c-1.576-1.182-3.514-1.446-5.398-1.061c-0.475,0.024-0.952,0.088-1.429,0.208l-32.427,8.533
				c-49.493,11.947-101.547,11.947-150.187,0l-34.133-8.533c-0.644-0.161-1.318-0.23-1.999-0.221
				c-1.786-0.367-3.732-0.095-5.681,1.074L105.88,33.963C69.187,56.15,45.293,91.99,38.467,133.803L3.894,352.512
				c-0.172,0.459-0.312,0.942-0.414,1.451l-4.267,28.16c-0.853,5.973,0.853,11.947,5.12,17.067c4.267,5.12,10.24,7.68,16.213,7.68
				h51.2c11.093,0,19.627-7.68,21.333-17.92l15.36-96.427v122.88v51.2c0,4.267,3.413,7.68,6.827,8.533l3.413,0.853
				c43.52,11.093,89.6,16.213,134.827,16.213c45.227,0,91.307-5.12,135.68-16.213l3.413-0.853c4.267-0.853,6.827-4.267,6.827-8.533
				v-51.2c0-1.124-0.34-2.243-0.853-3.294V292.523l9.431,62.688c-0.039,0.709-0.044,1.436-0.044,2.165l5.12,31.573
				c1.707,10.24,11.093,17.92,21.333,17.92h51.2c6.827,0,12.8-2.56,16.213-7.68C506.093,394.923,507.8,388.096,506.947,382.123z
				 M427.757,365.312l-0.171-1.109h6.827l2.56,10.24c0.853,4.267,5.12,6.827,8.533,6.827c0.853,0,1.707,0,1.707-0.853
				c4.267-0.853,6.827-5.973,5.973-10.24l-1.493-5.973h8.32l2.56,10.24c0.853,4.267,5.12,6.827,8.533,6.827
				c0.853,0,1.707,0,1.707-0.853c4.267-0.853,6.827-5.973,5.973-10.24l-1.493-5.973h10.027l3.407,20.442
				c-0.022,1.183-0.143,1.894-0.847,2.598c-0.853,0.853-1.707,1.707-3.413,1.707h-51.2c-2.56,0-4.267-1.707-4.267-3.413
				L427.757,365.312z M175,39.936c52.053,11.947,106.667,11.947,158.72,0l11.093-3.413l-6.827,10.24
				c-19.627,28.16-50.347,44.373-84.48,44.373c-1.067,0-2.13-0.016-3.19-0.047c-32.853-0.978-62.277-17.046-81.29-44.326
				l-6.827-10.24L175,39.936z M21.4,389.803c-1.707,0-3.413-0.853-3.413-1.707c0-0.853-0.853-1.707-0.853-3.413l3.249-20.48h9.551
				l-1.707,6.827c-1.707,4.267,1.707,9.387,5.973,10.24c0,0,0.853,0,1.707,0c4.267,0,7.68-2.56,8.533-5.973l2.773-11.093h8.32
				l-1.707,6.827c-1.707,4.267,1.707,9.387,5.973,10.24c0,0,0.853,0,1.707,0c4.267,0,7.68-2.56,8.533-5.973l2.773-11.093h6.613
				l-2.56,22.187c0,1.707-2.56,3.413-4.267,3.413H21.4z M125.507,408.342v-39.898l24.747-18.747l20.48,20.48
				c3.413,3.413,8.533,3.413,11.947,0l19.627-19.627l19.627,19.627c3.413,3.413,8.533,3.413,11.947,0l19.627-19.627l19.627,19.627
				c3.413,3.413,8.533,3.413,11.947,0l19.627-19.627l19.627,19.627c3.413,3.413,8.533,3.413,11.947,0l20.48-20.48l24.747,18.747
				v40.104C298.007,428.83,208.968,428.762,125.507,408.342z M381.507,347.136l-20.48-15.36c-3.413-2.56-7.68-2.56-11.093,0.853
				l-19.627,19.627L310.68,332.63c-3.413-3.413-8.533-3.413-11.947,0l-19.627,19.627L259.48,332.63
				c-3.413-3.413-8.533-3.413-11.947,0l-19.627,19.627L208.28,332.63c-3.413-3.413-8.533-3.413-11.947,0l-19.627,19.627
				L157.08,332.63c-2.56-3.413-7.68-3.413-11.093-0.853l-20.48,15.36v-29.893l24.747-18.747l20.48,20.48
				c3.413,3.413,8.533,3.413,11.947,0l19.627-19.627l19.627,19.627c3.413,3.413,8.533,3.413,11.947,0l19.627-19.627l19.627,19.627
				c3.413,3.413,8.533,3.413,11.947,0l19.627-19.627l19.627,19.627c3.413,3.413,8.533,3.413,11.947,0l20.48-20.48l24.747,18.747
				V347.136z M381.507,295.936l-20.48-15.36c-3.413-2.56-7.68-2.56-11.093,0.853l-19.627,19.627L310.68,281.43
				c-3.413-3.413-8.533-3.413-11.947,0l-19.627,19.627L259.48,281.43c-3.413-3.413-8.533-3.413-11.947,0l-19.627,19.627
				L208.28,281.43c-3.413-3.413-8.533-3.413-11.947,0l-19.627,19.627L157.08,281.43c-2.56-3.413-7.68-3.413-11.093-0.853
				l-20.48,15.36v-29.893l24.747-18.747l20.48,20.48c3.413,3.413,8.533,3.413,11.947,0l19.627-19.627l19.627,19.627
				c3.413,3.413,8.533,3.413,11.947,0l19.627-19.627l19.627,19.627c3.413,3.413,8.533,3.413,11.947,0l19.627-19.627l19.627,19.627
				c3.413,3.413,8.533,3.413,11.947,0l20.48-20.48l24.747,18.747V295.936z M125.507,459.776v-33.28
				c5.666,1.33,11.357,2.561,17.067,3.711v10.796c0,5.12,3.413,8.533,8.533,8.533c5.12,0,8.533-3.413,8.533-8.533v-7.642
				c5.673,0.958,11.363,1.827,17.067,2.609v13.566c0,5.12,3.413,8.533,8.533,8.533s8.533-3.413,8.533-8.533v-11.49
				c5.68,0.603,11.369,1.121,17.067,1.551v18.472c0,5.12,3.413,8.533,8.533,8.533s8.533-3.413,8.533-8.533v-17.439
				c5.686,0.257,11.375,0.433,17.067,0.519v16.921c0,5.12,3.413,8.533,8.533,8.533c5.12,0,8.533-3.413,8.533-8.533v-16.921
				c5.691-0.086,11.381-0.262,17.067-0.519v17.439c0,5.12,3.413,8.533,8.533,8.533s8.533-3.413,8.533-8.533v-18.472
				c5.698-0.43,11.387-0.949,17.067-1.551v11.49c0,5.12,3.413,8.533,8.533,8.533s8.533-3.413,8.533-8.533V435.97
				c5.704-0.783,11.393-1.651,17.067-2.609v7.642c0,5.12,3.413,8.533,8.533,8.533s8.533-3.413,8.533-8.533v-10.796
				c5.71-1.15,11.401-2.381,17.067-3.711v33.28C297.88,480.256,209.133,480.256,125.507,459.776z M389.187,176.47
				c-4.267,0-7.68,4.267-7.68,8.533v59.733l-20.48-15.36c-3.413-2.56-7.68-2.56-11.093,0.853l-19.627,19.627L310.68,230.23
				c-3.413-3.413-8.533-3.413-11.947,0l-19.627,19.627L259.48,230.23c-3.413-3.413-8.533-3.413-11.947,0l-19.627,19.627
				L208.28,230.23c-3.413-3.413-8.533-3.413-11.947,0l-19.627,19.627L157.08,230.23c-2.56-3.413-7.68-3.413-11.093-0.853
				l-20.48,15.36v-59.733c0-4.267-3.413-8.533-7.68-8.533c-4.267-0.853-8.533,2.56-9.387,6.827l-25.471,163.84h-59.88l33.298-209.92
				c5.973-36.693,27.307-69.12,58.88-87.893l24.747-15.36l15.36,22.187c22.187,32.427,58.88,52.053,98.133,52.053
				c39.253,0,75.947-19.627,98.133-52.053l14.02-20.725l2.194-3.169l24.747,15.36c31.573,19.627,52.907,51.2,58.88,87.893
				l33.453,211.627h-17.249c-1.133-0.208-2.297-0.221-3.404,0h-22.196c-1.133-0.208-2.297-0.221-3.404,0h-13.837l-26.27-163.84
				C397.72,179.03,393.453,176.47,389.187,176.47z"/>
			<path d="M276.547,144.896c-3.413-3.413-8.533-3.413-11.947,0l-11.093,11.093l-11.093-11.093c-3.413-3.413-8.533-3.413-11.947,0
				s-3.413,8.533,0,11.947l11.093,11.093l-11.093,11.093c-3.413,3.413-3.413,8.533,0,11.947c1.707,1.707,3.413,2.56,5.973,2.56
				s4.267-0.853,5.973-2.56l11.093-11.093l11.093,11.093c1.707,1.707,3.413,2.56,5.973,2.56c2.56,0,4.267-0.853,5.973-2.56
				c3.413-3.413,3.413-8.533,0-11.947l-11.093-11.093l11.093-11.093C279.96,153.43,279.96,148.31,276.547,144.896z"/>
			<path d="M344.813,144.896c-3.413-3.413-8.533-3.413-11.947,0l-11.093,11.093l-11.093-11.093c-3.413-3.413-8.533-3.413-11.947,0
				s-3.413,8.533,0,11.947l11.093,11.093l-11.093,11.093c-3.413,3.413-3.413,8.533,0,11.947c1.707,1.707,3.413,2.56,5.973,2.56
				s4.267-0.853,5.973-2.56l11.093-11.093l11.093,11.093c1.707,1.707,3.413,2.56,5.973,2.56s4.267-0.853,5.973-2.56
				c3.413-3.413,3.413-8.533,0-11.947l-11.093-11.093l11.093-11.093C348.227,153.43,348.227,148.31,344.813,144.896z"/>
			<path d="M208.28,144.896c-3.413-3.413-8.533-3.413-11.947,0L185.24,155.99l-11.093-11.093c-3.413-3.413-8.533-3.413-11.947,0
				s-3.413,8.533,0,11.947l11.093,11.093L162.2,179.03c-3.413,3.413-3.413,8.533,0,11.947c1.707,1.707,3.413,2.56,5.973,2.56
				s4.267-0.853,5.973-2.56l11.093-11.093l11.093,11.093c1.707,1.707,3.413,2.56,5.973,2.56s4.267-0.853,5.973-2.56
				c3.413-3.413,3.413-8.533,0-11.947l-11.093-11.093l11.093-11.093C211.693,153.43,211.693,148.31,208.28,144.896z"/>
		</g>
	</g>
</g>
<g>
</g>
<g>
</g>
<g>
</g>
<g>
</g>
<g>
</g>
<g>
</g>
<g>
</g>
<g>
</g>
<g>
</g>
<g>
</g>
<g>
</g>
<g>
</g>
<g>
</g>
<g>
</g>
<g>
</g>
</svg>
